<?xml version="1.0" encoding="utf-8"?>
<!-- Generator: Adobe Illustrator 19.2.1, SVG Export Plug-In . SVG Version: 6.00 Build 0)  -->
<svg version="1.1" id="layer" xmlns="http://www.w3.org/2000/svg" xmlns:xlink="http://www.w3.org/1999/xlink" x="0px" y="0px"
	 viewBox="0 0 652 652" style="enable-background:new 0 0 652 652;" xml:space="preserve">
<style type="text/css">
	.st0{fill:#023AA6;}
	.st1{fill:#FE6D00;}
	.st2{fill:#FE7007;}
	.st3{fill:#2E5DB5;}
	.st4{fill:#325FB7;}
	.st5{fill:#E9EEF6;}
	.st6{fill:#D2DCEE;}
	.st7{fill:#2152B1;}
</style>
<g>
	<path class="st0" d="M224.4,378c8.5,2.1,16,4.8,22,10.5c9,8.5,11.5,19.3,11.8,31c0.3,12-0.7,23.9-1.8,35.8
		c-0.6,7,0.6,13.2,7.6,16.5c2.2,1,2.1,2.5,1.3,4c-1.2,2.2,0.3,6-3.6,6.7c-0.9,0.1-1.8,0-2.8,0c-29.2,0-58.4-0.1-87.4,0.1
		c-4.3,0-5.4-1-4.8-5.4c1.9-14.8,3.6-29.6,5.1-44.6c0.4-4.9,0.4-10-0.9-15c-1.5-5.7-4.9-9-10.6-10.2c-9.1-1.8-18.3-0.7-27.4-1.2
		c-3.1-0.1-3,2.2-3.4,4.2c-5.7,22.3-11.5,44.5-16.9,66.8c-0.9,3.9-2.4,5.4-6.6,5.4c-24.7-0.3-49.4-0.1-74.1-0.1c-7.3,0-7.3,0-5.5-7
		c15.6-61.2,31.3-122.7,47-184.1c2.2-8.8,2.1-16.6-6.9-22c-3.1-1.9-0.3-4.6,0-7c0.1-1.8,0.4-3.9,3.1-3.7c1.3,0,2.5,0,3.9,0
		c50.4,0,100.9,0,151.5,0c12.6,0,25,1,37.1,4.5c27.5,7.8,37.9,25.6,31.4,53.6c-6.6,29.3-25.9,46.5-53.1,56.4
		C235.3,374.9,230.1,376.3,224.4,378z M159.6,356.3c0-0.1,0-0.3,0-0.3c4.5,0,9,0.3,13.5,0c17.2-1.2,28.4-11.5,30.8-28.4
		c1-7.5-2.1-13.3-9.1-16c-3-1-6.1-1.9-9.3-2.1c-9-0.4-18-0.3-26.8-0.6c-2.5-0.1-3.6,0.9-4.2,3.3c-3.4,13.6-6.9,27.1-10.5,40.6
		c-0.9,3.3,0.4,3.9,3.3,3.7C151.5,356.3,155.5,356.3,159.6,356.3z"/>
	<path class="st0" d="M505.2,482.4c1.6-6.9,3.3-13.5,4.9-20.1c-2.8-1.2-3.4,0.9-4.5,1.8c-23.8,22.3-51.9,26.9-82.3,19
		c-22.5-5.8-31.6-23.2-26.3-45.8c7.6-32.6,29.5-50.7,60.9-58.8c22.9-5.8,46.3-5.7,69.6-2.8c4.6,0.6,5.1-1.3,5.1-4.8
		c0.1-7.5-4-13.2-12.4-16c-10.5-3.4-21.3-3.7-32.2-2.8c-17.1,1.2-33.4,5.7-49.2,12.1c-1.3,0.6-2.5,1.3-4.6,1
		c1.8-7.2,3.6-14.4,5.5-21.6c1.2-4.5,3-9,3.4-13.6c0.9-9.3,5.7-13.2,14.8-15.1c36.5-7.8,72.9-9,109.6-1.6c0.6,0.1,1,0.1,1.6,0.3
		c32.9,9,45.8,29.9,38.3,63.3c-5.5,24.5-11.5,49.1-17.5,73.5c-2.2,8.8-1.5,16.2,7,21.4c3.7,2.4,0,5.4-0.1,8.1c0,3-2.5,2.7-4.6,2.7
		c-28,0-56.1,0-84.1,0C507,482.7,506.2,482.5,505.2,482.4z M489.3,443.6c17.5,0.4,31-16.2,34.1-33.1c0.4-2.5-1-2.4-2.5-2.4
		c-9.3-0.1-18.7-0.1-27.8,2.2c-7,1.9-13,5.4-16.5,12.4C470.5,435.4,475.4,443.5,489.3,443.6z"/>
	<path class="st0" d="M327.1,316.5c2.2,0.3,3.1,2.2,4.5,3.3c19.5,16.5,46.4,18.9,68,6.1c1.5-0.9,3.1-3.3,4.8-2.1
		c1.9,1.3,0.9,4,0.4,6.1c-4.9,19.3-9.9,38.6-15,58.1c-5.2,20.4-10.6,40.9-15.7,61.2c-2.1,8.7-2.4,17.1,7,22.6
		c3.4,2.1-0.1,4.9-0.1,7.5c0,3-2.1,3.3-4.6,3.3c-11.5-0.1-23.2,0-34.7,0c-17.5,0-35.2-0.1-52.7,0c-3.6,0-4.6-0.9-3.7-4.5
		c13.8-53.4,27.5-107,41.2-160.5C326.6,317.4,326.9,317,327.1,316.5z"/>
	<path class="st1" d="M344.1,282.4c0.6-14.5,7.5-26.5,16.5-37.1c13-15.6,29.5-25.9,50.1-27.7c15-1.3,28,3,37.7,15.1
		c2.8,3.6,3.3,7.3,2.5,11.5c-3.9,25.1-17.2,43.6-40.7,53.6c-23.9,10-46.7,6.7-67.7-8.5c-0.4-0.3-0.7-0.7-1.2-1.2
		C345.2,287.5,344.6,284.9,344.1,282.4z"/>
	<path class="st2" d="M344.1,282.4c0.4,2.5,1,5.1-2.7,5.7c-23.5-16.6-32.2-52.2-19.3-80.2c20.4-44,74.8-50.1,105.5-23.5
		c1.3,1.2,3.3,1.9,3.1,4.3c-34-13.8-62.1-4.8-85.2,22c-13.2,15.3-18.6,33.4-15.7,53.6c3.6-30.4,19.5-51.9,47-64.5
		c24.8-11.4,51.6-6.1,68.1,12c3,3.3,5.2,6.7,4.8,11.7c-0.6-0.1-1.2-0.1-1.5-0.4c-12-14.8-27.7-18-45.4-14.7
		c-31.6,5.8-58.8,36.8-60.8,68.6C342.3,278.8,340.7,281.5,344.1,282.4z"/>
	<path class="st3" d="M605.6,456.3c-3.3-6.1-2.4-11.1,2.5-14.7c4.6-3.3,10.9-2.5,14.7,1.6c3.7,4.2,3.3,10.2-0.9,15
		c-0.4-0.4-0.9-0.9-1.3-1.2c3.3-4.2,4-8.5,0.1-12.6c-3-3.1-7-3.6-10.6-1.2c-4.2,2.8-6,6.7-3,11.7
		C606.5,455.4,606.1,455.9,605.6,456.3z"/>
	<path class="st4" d="M620.6,457.1c0.4,0.4,0.9,0.9,1.3,1.2c-6,4.5-10.5,4.2-15.7-1.2c0.3-0.6,0.6-1.2,1-1.8
		c0.7,0.6,1.5,1.2,2.2,1.8c3.3,2.8,6.7,3,10.2,0.1C619.8,457.2,620.1,457.2,620.6,457.1z"/>
	<path class="st3" d="M607.1,455.4c-0.3,0.6-0.6,1.2-1,1.8c-0.3-0.1-0.4-0.4-0.4-0.7c0.4-0.4,0.9-0.9,1.3-1.3
		C607,455,607.1,455.4,607.1,455.4z"/>
	<path class="st5" d="M607.1,455.4l-0.1-0.3c-3-4.9-1.2-8.7,3-11.7c3.7-2.5,7.6-1.9,10.6,1.2c3.9,4,3.1,8.4-0.1,12.6
		c-0.3,0.1-0.7,0.1-1,0.3c-0.1-0.4-0.3-0.9-0.6-1.3c0.3-2.2-2.1-4.2-0.7-6.9c1.5-3-0.7-4.2-3.6-4.5c-3-0.3-4.5,0.6-4.2,3.9
		c0.3,2.4,0.1,4.8,0.1,7.2c-0.4,0.4-0.7,0.9-1.2,1.3C608.6,456.6,607.9,456,607.1,455.4z"/>
	<path class="st6" d="M618.9,456c0.1,0.4,0.3,0.9,0.6,1.3c-3.4,2.8-6.7,2.7-10.2-0.1c0.4-0.4,0.7-0.9,1.2-1.3
		c3.9,1.2,1.2-3.7,3.7-3.9C616.1,452.9,615.5,456.9,618.9,456z"/>
	<path class="st7" d="M618.9,456c-3.4,0.7-2.8-3.3-4.6-4.2c-2.5,0.1,0.1,5.1-3.7,3.9c0-2.4,0.1-4.8-0.1-7.2
		c-0.3-3.3,1.2-4.3,4.2-3.9c2.8,0.3,5.1,1.5,3.6,4.5C616.8,452,619.2,453.8,618.9,456z"/>
</g>
</svg>
